<svg width="213" height="96" viewBox="0 0 213 96" fill="none" xmlns="http://www.w3.org/2000/svg">
<g filter="url(#filter0_d_10_14)">
<path d="M8.96 62V57.648H23.68C26.496 57.648 28.736 56.88 30.4 55.344C32.064 53.808 32.896 51.7387 32.896 49.136C32.896 46.3627 32.0213 44.144 30.272 42.48C28.5227 40.816 26.176 39.984 23.232 39.984H8.96V35.76H22.528C25.4293 35.76 27.6907 35.056 29.312 33.648C30.9333 32.24 31.744 30.256 31.744 27.696C31.744 25.3067 30.976 23.472 29.44 22.192C27.9467 20.912 25.7493 20.272 22.848 20.272H8.96V15.92H23.296C27.52 15.92 30.848 16.9227 33.28 18.928C35.7547 20.9333 36.992 23.664 36.992 27.12C36.992 29.296 36.5013 31.2373 35.52 32.944C34.5387 34.6507 33.1947 35.9947 31.488 36.976C29.7813 37.9147 27.8187 38.384 25.6 38.384L25.92 37.04C28.2667 37.04 30.3573 37.5947 32.192 38.704C34.0693 39.8133 35.5413 41.328 36.608 43.248C37.7173 45.1253 38.272 47.28 38.272 49.712C38.272 52.144 37.6747 54.2987 36.48 56.176C35.328 58.0107 33.6853 59.44 31.552 60.464C29.4187 61.488 26.944 62 24.128 62H8.96ZM5.504 62V15.92H10.752V62H5.504ZM55.7915 62V15.92H61.0395V62H55.7915ZM58.4795 62V57.392H84.7195V62H58.4795ZM103.016 62V15.92H108.264V62H103.016ZM144.483 62.576C139.107 62.576 134.819 61.2533 131.619 58.608C128.461 55.9627 126.605 52.1867 126.051 47.28H131.171C131.64 50.8213 132.984 53.488 135.203 55.28C137.421 57.072 140.493 57.968 144.419 57.968C147.747 57.968 150.243 57.3493 151.907 56.112C153.613 54.832 154.467 52.976 154.467 50.544C154.467 48.4533 153.891 46.7893 152.739 45.552C151.587 44.3147 149.795 43.2907 147.363 42.48L139.619 39.792C135.693 38.4267 132.792 36.784 130.915 34.864C129.037 32.9013 128.099 30.4267 128.099 27.44C128.099 24.9653 128.717 22.832 129.955 21.04C131.192 19.2053 132.941 17.776 135.203 16.752C137.464 15.728 140.088 15.216 143.075 15.216C147.683 15.216 151.373 16.432 154.147 18.864C156.92 21.2533 158.52 24.6667 158.947 29.104H153.827C153.272 25.904 152.12 23.5573 150.371 22.064C148.664 20.5707 146.189 19.824 142.947 19.824C139.875 19.824 137.485 20.4427 135.779 21.68C134.072 22.9173 133.219 24.6667 133.219 26.928C133.219 28.848 133.816 30.384 135.011 31.536C136.205 32.688 138.061 33.6907 140.579 34.544L148.835 37.424C152.419 38.6613 155.107 40.3467 156.899 42.48C158.691 44.5707 159.587 47.2373 159.587 50.48C159.587 54.32 158.264 57.3067 155.619 59.44C153.016 61.5307 149.304 62.576 144.483 62.576ZM193.02 62.576C187.644 62.576 183.356 61.2533 180.156 58.608C176.999 55.9627 175.143 52.1867 174.588 47.28H179.708C180.177 50.8213 181.521 53.488 183.74 55.28C185.959 57.072 189.031 57.968 192.956 57.968C196.284 57.968 198.78 57.3493 200.444 56.112C202.151 54.832 203.004 52.976 203.004 50.544C203.004 48.4533 202.428 46.7893 201.276 45.552C200.124 44.3147 198.332 43.2907 195.9 42.48L188.156 39.792C184.231 38.4267 181.329 36.784 179.452 34.864C177.575 32.9013 176.636 30.4267 176.636 27.44C176.636 24.9653 177.255 22.832 178.492 21.04C179.729 19.2053 181.479 17.776 183.74 16.752C186.001 15.728 188.625 15.216 191.612 15.216C196.22 15.216 199.911 16.432 202.684 18.864C205.457 21.2533 207.057 24.6667 207.484 29.104H202.364C201.809 25.904 200.657 23.5573 198.908 22.064C197.201 20.5707 194.727 19.824 191.484 19.824C188.412 19.824 186.023 20.4427 184.316 21.68C182.609 22.9173 181.756 24.6667 181.756 26.928C181.756 28.848 182.353 30.384 183.548 31.536C184.743 32.688 186.599 33.6907 189.116 34.544L197.372 37.424C200.956 38.6613 203.644 40.3467 205.436 42.48C207.228 44.5707 208.124 47.2373 208.124 50.48C208.124 54.32 206.801 57.3067 204.156 59.44C201.553 61.5307 197.841 62.576 193.02 62.576Z" fill="#58529C"/>
</g>
<g filter="url(#filter1_d_10_14)">
<path d="M21.52 84.22C19.9467 84.22 18.6267 83.6867 17.56 82.62C16.4933 81.54 15.96 80.2 15.96 78.6C15.96 76.9867 16.4867 75.6467 17.54 74.58C18.6067 73.5133 19.9333 72.98 21.52 72.98C22.7333 72.98 23.7933 73.3067 24.7 73.96C25.62 74.6 26.26 75.46 26.62 76.54H25.64C25.28 75.7267 24.7333 75.0933 24 74.64C23.28 74.1733 22.4533 73.94 21.52 73.94C20.2133 73.94 19.1267 74.3867 18.26 75.28C17.3933 76.16 16.96 77.2667 16.96 78.6C16.96 79.92 17.3933 81.0267 18.26 81.92C19.14 82.8133 20.2267 83.26 21.52 83.26C22.44 83.26 23.26 83.0333 23.98 82.58C24.7133 82.1133 25.2733 81.46 25.66 80.62H26.66C26.2733 81.7267 25.62 82.6067 24.7 83.26C23.78 83.9 22.72 84.22 21.52 84.22ZM38.527 73.2V74.1H34.207V84H33.247V74.1H28.947V73.2H38.527ZM50.3209 73.2H51.3809L45.9809 84.78C45.4476 85.94 44.9009 86.7333 44.3409 87.16C43.7809 87.6 43.0409 87.82 42.1209 87.82H41.2209V86.94H42.0409C42.7876 86.94 43.3676 86.78 43.7809 86.46C44.2076 86.14 44.6409 85.5 45.0809 84.54L45.6609 83.36L40.7009 73.2H41.7609L46.1809 82.26L50.3209 73.2ZM63.1556 83.06H64.6756V86.98H63.7756V84H53.9156V86.98H53.0156V83.06H54.1956C54.5423 82.7533 54.8023 82.3133 54.9756 81.74C55.1623 81.1667 55.3223 80.2867 55.4556 79.1C55.589 77.9 55.7623 75.9267 55.9756 73.18H63.1556V83.06ZM56.8556 74.06C56.6423 77.3 56.429 79.4933 56.2156 80.64C56.0156 81.7867 55.709 82.5933 55.2956 83.06H62.1956V74.06H56.8556ZM76.6909 73.2H77.2509V84H76.3309V75L69.2709 84H68.6909V73.2H69.6309V82.16L76.6909 73.2ZM85.0547 73.2H89.6947V83.98H88.7347V79.6H85.3547L82.4747 84H81.3947L84.3147 79.48C83.528 79.3467 82.888 79 82.3947 78.44C81.9147 77.88 81.6747 77.2 81.6747 76.4C81.6747 75.4667 81.988 74.7 82.6147 74.1C83.2547 73.5 84.068 73.2 85.0547 73.2ZM85.0747 78.64H88.7347V74.16H85.1347C84.4014 74.16 83.808 74.3667 83.3547 74.78C82.9014 75.1933 82.6747 75.7333 82.6747 76.4C82.6747 77.0533 82.8947 77.5933 83.3347 78.02C83.788 78.4333 84.368 78.64 85.0747 78.64ZM108.938 84L104.618 78.82H102.738V84H101.758V73.2H102.738V77.9H104.638L108.578 73.2H109.778L105.478 78.36L110.158 84H108.938ZM119.11 72.98C120.697 72.98 122.01 73.5133 123.05 74.58C124.09 75.6467 124.61 76.9867 124.61 78.6C124.61 80.2133 124.09 81.5533 123.05 82.62C122.01 83.6867 120.697 84.22 119.11 84.22C118.123 84.22 117.223 84 116.41 83.56C115.61 83.12 114.963 82.5133 114.47 81.74V87.82H113.49V73.2H114.21L114.41 75.56C114.903 74.76 115.557 74.1333 116.37 73.68C117.197 73.2133 118.11 72.98 119.11 72.98ZM119.03 83.26C120.363 83.26 121.463 82.82 122.33 81.94C123.197 81.06 123.63 79.9467 123.63 78.6C123.63 77.2533 123.197 76.14 122.33 75.26C121.463 74.38 120.363 73.94 119.03 73.94C117.723 73.94 116.63 74.3867 115.75 75.28C114.87 76.16 114.43 77.2667 114.43 78.6C114.43 79.9333 114.87 81.0467 115.75 81.94C116.63 82.82 117.723 83.26 119.03 83.26ZM138.315 73.2H139.115V84H138.275L138.175 81.66C137.695 82.46 137.042 83.0867 136.215 83.54C135.402 83.9933 134.488 84.22 133.475 84.22C131.888 84.22 130.568 83.6867 129.515 82.62C128.462 81.54 127.935 80.2 127.935 78.6C127.935 77 128.462 75.6667 129.515 74.6C130.568 73.52 131.888 72.98 133.475 72.98C134.488 72.98 135.402 73.2133 136.215 73.68C137.042 74.1333 137.695 74.76 138.175 75.56L138.315 73.2ZM133.535 83.26C134.402 83.26 135.182 83.06 135.875 82.66C136.582 82.26 137.128 81.7067 137.515 81C137.915 80.28 138.115 79.48 138.115 78.6C138.115 77.2533 137.682 76.14 136.815 75.26C135.948 74.38 134.855 73.94 133.535 73.94C132.215 73.94 131.115 74.3867 130.235 75.28C129.368 76.16 128.935 77.2667 128.935 78.6C128.935 79.9333 129.368 81.0467 130.235 81.94C131.115 82.82 132.215 83.26 133.535 83.26ZM148.918 84.22C147.345 84.22 146.025 83.6867 144.958 82.62C143.892 81.54 143.358 80.2 143.358 78.6C143.358 76.9867 143.885 75.6467 144.938 74.58C146.005 73.5133 147.332 72.98 148.918 72.98C150.132 72.98 151.192 73.3067 152.098 73.96C153.018 74.6 153.658 75.46 154.018 76.54H153.038C152.678 75.7267 152.132 75.0933 151.398 74.64C150.678 74.1733 149.852 73.94 148.918 73.94C147.612 73.94 146.525 74.3867 145.658 75.28C144.792 76.16 144.358 77.2667 144.358 78.6C144.358 79.92 144.792 81.0267 145.658 81.92C146.538 82.8133 147.625 83.26 148.918 83.26C149.838 83.26 150.658 83.0333 151.378 82.58C152.112 82.1133 152.672 81.46 153.058 80.62H154.058C153.672 81.7267 153.018 82.6067 152.098 83.26C151.178 83.9 150.118 84.22 148.918 84.22ZM162.801 84.22C161.188 84.22 159.841 83.6867 158.761 82.62C157.681 81.5533 157.141 80.2133 157.141 78.6C157.141 76.9867 157.675 75.6467 158.741 74.58C159.821 73.5133 161.168 72.98 162.781 72.98C164.408 72.98 165.755 73.5133 166.821 74.58C167.901 75.6467 168.441 76.9867 168.441 78.6C168.441 80.2133 167.901 81.5533 166.821 82.62C165.755 83.6867 164.415 84.22 162.801 84.22ZM162.801 83.26C163.681 83.26 164.475 83.06 165.181 82.66C165.888 82.26 166.441 81.7067 166.841 81C167.241 80.28 167.441 79.48 167.441 78.6C167.441 77.2533 167.001 76.14 166.121 75.26C165.241 74.38 164.135 73.94 162.801 73.94C161.908 73.94 161.108 74.14 160.401 74.54C159.695 74.94 159.141 75.5 158.741 76.22C158.341 76.9267 158.141 77.72 158.141 78.6C158.141 79.9333 158.581 81.0467 159.461 81.94C160.341 82.82 161.455 83.26 162.801 83.26ZM180.294 73.2V74.1H175.974V84H175.014V74.1H170.714V73.2H180.294ZM188.108 76.94C189.161 76.94 190.035 77.2733 190.728 77.94C191.421 78.5933 191.768 79.44 191.768 80.48C191.768 81.52 191.421 82.3667 190.728 83.02C190.035 83.6733 189.161 84 188.108 84H183.908V73.2H184.868V76.94H188.108ZM193.888 73.2H194.868V84H193.888V73.2ZM187.988 83.12C188.801 83.12 189.468 82.8733 189.988 82.38C190.508 81.8867 190.768 81.2533 190.768 80.48C190.768 79.7067 190.508 79.0733 189.988 78.58C189.468 78.0733 188.801 77.82 187.988 77.82H184.868V83.12H187.988Z" fill="#58529C"/>
</g>
<defs>
<filter id="filter0_d_10_14" x="1.50403" y="15.216" width="210.62" height="55.36" filterUnits="userSpaceOnUse" color-interpolation-filters="sRGB">
<feFlood flood-opacity="0" result="BackgroundImageFix"/>
<feColorMatrix in="SourceAlpha" type="matrix" values="0 0 0 0 0 0 0 0 0 0 0 0 0 0 0 0 0 0 127 0" result="hardAlpha"/>
<feOffset dy="4"/>
<feGaussianBlur stdDeviation="2"/>
<feComposite in2="hardAlpha" operator="out"/>
<feColorMatrix type="matrix" values="0 0 0 0 0 0 0 0 0 0 0 0 0 0 0 0 0 0 0.25 0"/>
<feBlend mode="normal" in2="BackgroundImageFix" result="effect1_dropShadow_10_14"/>
<feBlend mode="normal" in="SourceGraphic" in2="effect1_dropShadow_10_14" result="shape"/>
</filter>
<filter id="filter1_d_10_14" x="11.96" y="72.98" width="186.908" height="22.84" filterUnits="userSpaceOnUse" color-interpolation-filters="sRGB">
<feFlood flood-opacity="0" result="BackgroundImageFix"/>
<feColorMatrix in="SourceAlpha" type="matrix" values="0 0 0 0 0 0 0 0 0 0 0 0 0 0 0 0 0 0 127 0" result="hardAlpha"/>
<feOffset dy="4"/>
<feGaussianBlur stdDeviation="2"/>
<feComposite in2="hardAlpha" operator="out"/>
<feColorMatrix type="matrix" values="0 0 0 0 0 0 0 0 0 0 0 0 0 0 0 0 0 0 0.25 0"/>
<feBlend mode="normal" in2="BackgroundImageFix" result="effect1_dropShadow_10_14"/>
<feBlend mode="normal" in="SourceGraphic" in2="effect1_dropShadow_10_14" result="shape"/>
</filter>
</defs>
</svg>
